<?xml version="1.0" encoding="UTF-8" standalone="no"?>
<!DOCTYPE svg PUBLIC "-//W3C//DTD SVG 1.1//EN"
 "http://www.w3.org/Graphics/SVG/1.1/DTD/svg11.dtd">
<!-- Generated by graphviz version 2.40.1 (20161225.0304)
 -->
<!-- Title: finite_state_machine Pages: 1 -->
<svg width="506pt" height="281pt"
 viewBox="0.00 0.00 506.47 281.00" xmlns="http://www.w3.org/2000/svg" xmlns:xlink="http://www.w3.org/1999/xlink">
<g id="graph0" class="graph" transform="scale(1 1) rotate(0) translate(4 277)">
<title>finite_state_machine</title>
<polygon fill="#ffffff" stroke="transparent" points="-4,4 -4,-277 502.4729,-277 502.4729,4 -4,4"/>
<!-- LR_2 -->
<g id="node1" class="node">
<title>LR_2</title>
<ellipse fill="none" stroke="#000000" cx="30.5473" cy="-43" rx="30.5947" ry="30.5947"/>
<text text-anchor="middle" x="30.5473" y="-39.3" font-family="Times,serif" font-size="14.00" fill="#000000">LR_2</text>
</g>
<!-- LR_4 -->
<g id="node2" class="node">
<title>LR_4</title>
<ellipse fill="none" stroke="#000000" cx="141.6419" cy="-177" rx="30.5947" ry="30.5947"/>
<text text-anchor="middle" x="141.6419" y="-173.3" font-family="Times,serif" font-size="14.00" fill="#000000">LR_4</text>
</g>
<!-- LR_2&#45;&gt;LR_4 -->
<g id="edge1" class="edge">
<title>LR_2&#45;&gt;LR_4</title>
<path fill="none" stroke="#000000" d="M50.153,-66.6481C68.2856,-88.5192 95.3728,-121.1912 115.3713,-145.3129"/>
<polygon fill="#000000" stroke="#000000" points="112.7815,-147.6731 121.8584,-153.1376 118.1704,-143.2054 112.7815,-147.6731"/>
<text text-anchor="middle" x="86.0946" y="-122.8" font-family="Times,serif" font-size="14.00" fill="#000000">12</text>
</g>
<!-- LR_1 -->
<g id="node4" class="node">
<title>LR_1</title>
<ellipse fill="none" stroke="#000000" cx="245.7364" cy="-140" rx="30.5947" ry="30.5947"/>
<text text-anchor="middle" x="245.7364" y="-136.3" font-family="Times,serif" font-size="14.00" fill="#000000">LR_1</text>
</g>
<!-- LR_4&#45;&gt;LR_1 -->
<g id="edge12" class="edge">
<title>LR_4&#45;&gt;LR_1</title>
<path fill="none" stroke="#000000" d="M170.638,-166.6934C182.0304,-162.6441 195.2692,-157.9384 207.43,-153.6159"/>
<polygon fill="#000000" stroke="#000000" points="208.6456,-156.8984 216.8958,-150.2513 206.3011,-150.3027 208.6456,-156.8984"/>
<text text-anchor="middle" x="193.6892" y="-163.8" font-family="Times,serif" font-size="14.00" fill="#000000">1</text>
</g>
<!-- LR_3 -->
<g id="node6" class="node">
<title>LR_3</title>
<ellipse fill="none" stroke="#000000" cx="356.831" cy="-207" rx="30.5947" ry="30.5947"/>
<text text-anchor="middle" x="356.831" y="-203.3" font-family="Times,serif" font-size="14.00" fill="#000000">LR_3</text>
</g>
<!-- LR_4&#45;&gt;LR_3 -->
<g id="edge11" class="edge">
<title>LR_4&#45;&gt;LR_3</title>
<path fill="none" stroke="#000000" d="M172.0168,-181.2346C209.7181,-186.4907 274.1545,-195.4739 316.1105,-201.3231"/>
<polygon fill="#000000" stroke="#000000" points="315.8754,-204.8241 326.263,-202.7384 316.842,-197.8911 315.8754,-204.8241"/>
<text text-anchor="middle" x="245.7364" y="-199.8" font-family="Times,serif" font-size="14.00" fill="#000000">14</text>
</g>
<!-- LR_5 -->
<g id="node3" class="node">
<title>LR_5</title>
<ellipse fill="none" stroke="#000000" cx="467.9256" cy="-126" rx="30.5947" ry="30.5947"/>
<text text-anchor="middle" x="467.9256" y="-122.3" font-family="Times,serif" font-size="14.00" fill="#000000">LR_5</text>
</g>
<!-- LR_5&#45;&gt;LR_2 -->
<g id="edge3" class="edge">
<title>LR_5&#45;&gt;LR_2</title>
<path fill="none" stroke="#000000" d="M457.3305,-97.0931C441.6093,-59.8935 408.3047,0 356.831,0 141.6419,0 141.6419,0 141.6419,0 114.9788,0 86.9957,-10.9054 65.7842,-21.7323"/>
<polygon fill="#000000" stroke="#000000" points="64.0185,-18.7071 56.8385,-26.4981 67.3099,-24.8851 64.0185,-18.7071"/>
<text text-anchor="middle" x="245.7364" y="-3.8" font-family="Times,serif" font-size="14.00" fill="#000000">2</text>
</g>
<!-- LR_5&#45;&gt;LR_4 -->
<g id="edge2" class="edge">
<title>LR_5&#45;&gt;LR_4</title>
<path fill="none" stroke="#000000" d="M457.8977,-155.1539C446.0989,-184.3699 423.4162,-227.6973 387.3783,-247 316.7362,-284.8376 223.4233,-234.4143 174.6144,-201.4552"/>
<polygon fill="#000000" stroke="#000000" points="176.537,-198.5294 166.3186,-195.7302 172.5611,-204.2907 176.537,-198.5294"/>
<text text-anchor="middle" x="301.2837" y="-261.8" font-family="Times,serif" font-size="14.00" fill="#000000">5</text>
</g>
<!-- LR_5&#45;&gt;LR_1 -->
<g id="edge4" class="edge">
<title>LR_5&#45;&gt;LR_1</title>
<path fill="none" stroke="#000000" d="M437.2935,-127.9301C398.205,-130.3931 330.449,-134.6623 286.884,-137.4073"/>
<polygon fill="#000000" stroke="#000000" points="286.391,-133.9313 276.6309,-138.0534 286.8312,-140.9175 286.391,-133.9313"/>
<text text-anchor="middle" x="356.831" y="-138.8" font-family="Times,serif" font-size="14.00" fill="#000000">11</text>
</g>
<!-- LR_1&#45;&gt;LR_4 -->
<g id="edge10" class="edge">
<title>LR_1&#45;&gt;LR_4</title>
<path fill="none" stroke="#000000" d="M215.1788,-136.4902C206.8939,-136.4765 198.0469,-137.347 190.1892,-140 183.7131,-142.1865 177.4186,-145.62 171.6253,-149.5333"/>
<polygon fill="#000000" stroke="#000000" points="169.4901,-146.7592 163.5331,-155.5207 173.6537,-152.3863 169.4901,-146.7592"/>
<text text-anchor="middle" x="193.6892" y="-143.8" font-family="Times,serif" font-size="14.00" fill="#000000">0</text>
</g>
<!-- LR_0 -->
<g id="node5" class="node">
<title>LR_0</title>
<ellipse fill="none" stroke="#000000" cx="356.831" cy="-76" rx="30.5947" ry="30.5947"/>
<text text-anchor="middle" x="356.831" y="-72.3" font-family="Times,serif" font-size="14.00" fill="#000000">LR_0</text>
</g>
<!-- LR_1&#45;&gt;LR_0 -->
<g id="edge9" class="edge">
<title>LR_1&#45;&gt;LR_0</title>
<path fill="none" stroke="#000000" d="M272.3464,-124.6704C286.942,-116.262 305.2359,-105.7232 321.0648,-96.6044"/>
<polygon fill="#000000" stroke="#000000" points="323.1353,-99.4509 330.0532,-91.4263 319.6411,-93.3854 323.1353,-99.4509"/>
<text text-anchor="middle" x="301.2837" y="-115.8" font-family="Times,serif" font-size="14.00" fill="#000000">1</text>
</g>
<!-- LR_1&#45;&gt;LR_3 -->
<g id="edge8" class="edge">
<title>LR_1&#45;&gt;LR_3</title>
<path fill="none" stroke="#000000" d="M272.0643,-155.8781C286.8983,-164.8243 305.6189,-176.1145 321.6917,-185.8078"/>
<polygon fill="#000000" stroke="#000000" points="319.9363,-188.8364 330.3071,-191.0037 323.5515,-182.8421 319.9363,-188.8364"/>
<text text-anchor="middle" x="301.2837" y="-181.8" font-family="Times,serif" font-size="14.00" fill="#000000">21</text>
</g>
<!-- LR_0&#45;&gt;LR_2 -->
<g id="edge5" class="edge">
<title>LR_0&#45;&gt;LR_2</title>
<path fill="none" stroke="#000000" d="M326.5622,-71.3978C320.5149,-70.5454 314.203,-69.7034 308.2837,-69 224.2003,-59.0086 125.4173,-50.537 71.236,-46.1699"/>
<polygon fill="#000000" stroke="#000000" points="71.2593,-42.6606 61.012,-45.3519 70.701,-49.6383 71.2593,-42.6606"/>
<text text-anchor="middle" x="193.6892" y="-61.8" font-family="Times,serif" font-size="14.00" fill="#000000">8</text>
</g>
<!-- LR_0&#45;&gt;LR_5 -->
<g id="edge6" class="edge">
<title>LR_0&#45;&gt;LR_5</title>
<path fill="none" stroke="#000000" d="M384.8649,-88.6171C398.6798,-94.8348 415.5324,-102.4196 430.4382,-109.1281"/>
<polygon fill="#000000" stroke="#000000" points="429.3453,-112.4744 439.9007,-113.3869 432.2182,-106.0911 429.3453,-112.4744"/>
<text text-anchor="middle" x="412.3783" y="-107.8" font-family="Times,serif" font-size="14.00" fill="#000000">10</text>
</g>
<!-- LR_0&#45;&gt;LR_1 -->
<g id="edge7" class="edge">
<title>LR_0&#45;&gt;LR_1</title>
<path fill="none" stroke="#000000" d="M326.5908,-71.2451C315.8912,-70.8867 304.0874,-72.0802 294.2837,-77 282.4033,-82.9621 272.593,-93.3487 264.976,-103.9892"/>
<polygon fill="#000000" stroke="#000000" points="261.9445,-102.2277 259.3398,-112.4974 267.7803,-106.0936 261.9445,-102.2277"/>
<text text-anchor="middle" x="301.2837" y="-80.8" font-family="Times,serif" font-size="14.00" fill="#000000">6</text>
</g>
</g>
</svg>
