<?xml version="1.0" encoding="UTF-8" standalone="no"?>
<!DOCTYPE svg PUBLIC "-//W3C//DTD SVG 1.1//EN"
 "http://www.w3.org/Graphics/SVG/1.1/DTD/svg11.dtd">
<!-- Generated by graphviz version 2.40.1 (20161225.0304)
 -->
<!-- Title: finite_state_machine Pages: 1 -->
<svg width="381pt" height="133pt"
 viewBox="0.00 0.00 381.38 133.09" xmlns="http://www.w3.org/2000/svg" xmlns:xlink="http://www.w3.org/1999/xlink">
<g id="graph0" class="graph" transform="scale(1 1) rotate(0) translate(4 129.0946)">
<title>finite_state_machine</title>
<polygon fill="#ffffff" stroke="transparent" points="-4,4 -4,-129.0946 377.3783,-129.0946 377.3783,4 -4,4"/>
<!-- LR_1 -->
<g id="node1" class="node">
<title>LR_1</title>
<ellipse fill="none" stroke="#000000" cx="134.6419" cy="-94.5473" rx="30.5947" ry="30.5947"/>
<text text-anchor="middle" x="134.6419" y="-90.8473" font-family="Times,serif" font-size="14.00" fill="#000000">LR_1</text>
</g>
<!-- LR_3 -->
<g id="node2" class="node">
<title>LR_3</title>
<ellipse fill="none" stroke="#000000" cx="342.831" cy="-64.5473" rx="30.5947" ry="30.5947"/>
<text text-anchor="middle" x="342.831" y="-60.8473" font-family="Times,serif" font-size="14.00" fill="#000000">LR_3</text>
</g>
<!-- LR_1&#45;&gt;LR_3 -->
<g id="edge1" class="edge">
<title>LR_1&#45;&gt;LR_3</title>
<path fill="none" stroke="#000000" d="M164.9144,-90.185C201.2248,-84.9527 262.2256,-76.1625 302.5044,-70.3584"/>
<polygon fill="#000000" stroke="#000000" points="303.1235,-73.8054 312.522,-68.9148 302.125,-66.8769 303.1235,-73.8054"/>
<text text-anchor="middle" x="238.7364" y="-86.3473" font-family="Times,serif" font-size="14.00" fill="#000000">1</text>
</g>
<!-- LR_2 -->
<g id="node3" class="node">
<title>LR_2</title>
<ellipse fill="none" stroke="#000000" cx="238.7364" cy="-30.5473" rx="30.5947" ry="30.5947"/>
<text text-anchor="middle" x="238.7364" y="-26.8473" font-family="Times,serif" font-size="14.00" fill="#000000">LR_2</text>
</g>
<!-- LR_1&#45;&gt;LR_2 -->
<g id="edge2" class="edge">
<title>LR_1&#45;&gt;LR_2</title>
<path fill="none" stroke="#000000" d="M160.9093,-78.3974C173.8538,-70.4388 189.6445,-60.7302 203.6111,-52.1433"/>
<polygon fill="#000000" stroke="#000000" points="205.7918,-54.9111 212.4774,-46.692 202.1255,-48.948 205.7918,-54.9111"/>
<text text-anchor="middle" x="186.6892" y="-67.3473" font-family="Times,serif" font-size="14.00" fill="#000000">3</text>
</g>
<!-- LR_2&#45;&gt;LR_3 -->
<g id="edge3" class="edge">
<title>LR_2&#45;&gt;LR_3</title>
<path fill="none" stroke="#000000" d="M268.0096,-40.1087C279.1908,-43.7607 292.1186,-47.9833 304.0499,-51.8804"/>
<polygon fill="#000000" stroke="#000000" points="303.1851,-55.2798 313.7776,-55.0577 305.3585,-48.6257 303.1851,-55.2798"/>
<text text-anchor="middle" x="290.7837" y="-52.3473" font-family="Times,serif" font-size="14.00" fill="#000000">5</text>
</g>
<!-- LR_0 -->
<g id="node4" class="node">
<title>LR_0</title>
<ellipse fill="none" stroke="#000000" cx="30.5473" cy="-46.5473" rx="30.5947" ry="30.5947"/>
<text text-anchor="middle" x="30.5473" y="-42.8473" font-family="Times,serif" font-size="14.00" fill="#000000">LR_0</text>
</g>
<!-- LR_0&#45;&gt;LR_1 -->
<g id="edge5" class="edge">
<title>LR_0&#45;&gt;LR_1</title>
<path fill="none" stroke="#000000" d="M58.4427,-59.4104C70.4609,-64.9522 84.6867,-71.512 97.5733,-77.4543"/>
<polygon fill="#000000" stroke="#000000" points="96.1228,-80.6395 106.6694,-81.6487 99.054,-74.2828 96.1228,-80.6395"/>
<text text-anchor="middle" x="82.5946" y="-75.3473" font-family="Times,serif" font-size="14.00" fill="#000000">4</text>
</g>
<!-- LR_0&#45;&gt;LR_2 -->
<g id="edge4" class="edge">
<title>LR_0&#45;&gt;LR_2</title>
<path fill="none" stroke="#000000" d="M60.946,-43.4603C74.192,-42.1653 89.9038,-40.6967 104.0946,-39.5473 135.6349,-36.9927 171.3745,-34.6284 198.1019,-32.9647"/>
<polygon fill="#000000" stroke="#000000" points="198.4723,-36.4486 208.2382,-32.3404 198.0419,-29.4618 198.4723,-36.4486"/>
<text text-anchor="middle" x="134.6419" y="-43.3473" font-family="Times,serif" font-size="14.00" fill="#000000">4</text>
</g>
</g>
</svg>
